HIERARCHY
ROOT Hips
{
	 OFFSET 0.00 0.00 0.00
	 CHANNELS 6 Xposition Yposition Zposition Zrotation Yrotation Xrotation
	 JOINT LeftUpLeg
	 {
	 	 OFFSET 1.33 0.00 0.00
	 	 CHANNELS 3 Zrotation Yrotation Xrotation
	 	 JOINT LeftLowLeg
	 	 {
	 	 	 OFFSET 0.00 -4.43 0.00
	 	 	 CHANNELS 3 Zrotation Yrotation Xrotation
	 	 	 JOINT LeftFoot
	 	 	 {
	 	 	 	 OFFSET 0.00 -4.54 0.00
	 	 	 	 CHANNELS 3 Zrotation Yrotation Xrotation
	 	 	 	 End Site
	 	 	 	 {
	 	 	 	 	 OFFSET 0.00 -0.10 0.00
	 	 	 	 }
	 	 	 }
	 	 }
	 }
	 JOINT RightUpLeg
	 {
	 	 OFFSET -1.33 0.00 0.00
	 	 CHANNELS 3 Zrotation Yrotation Xrotation
	 	 JOINT RightLowLeg
	 	 {
	 	 	 OFFSET 0.00 -4.43 0.00
	 	 	 CHANNELS 3 Zrotation Yrotation Xrotation
	 	 	 JOINT RightFoot
	 	 	 {
	 	 	 	 OFFSET 0.00 -4.54 0.00
	 	 	 	 CHANNELS 3 Zrotation Yrotation Xrotation
	 	 	 	 End Site
	 	 	 	 {
	 	 	 	 	 OFFSET 0.00 -0.10 0.00
	 	 	 	 }
	 	 	 }
	 	 }
	 }
	 JOINT Chest
	 {
	 	 OFFSET 0.00 0.00 0.00
	 	 CHANNELS 3 Zrotation Yrotation Xrotation
	 	 JOINT LeftCollar
	 	 {
	 	 	 OFFSET 0.00 4.89 0.00
	 	 	 CHANNELS 3 Zrotation Yrotation Xrotation
	 	 	 JOINT LeftUpArm
	 	 	 {
	 	 	 	 OFFSET 1.51 0.00 0.00
	 	 	 	 CHANNELS 3 Zrotation Yrotation Xrotation
	 	 	 	 JOINT LeftLowArm
	 	 	 	 {
	 	 	 	 	 OFFSET 0.00 -2.79 0.00
	 	 	 	 	 CHANNELS 3 Zrotation Yrotation Xrotation
	 	 	 	 	 End Site
	 	 	 	 	 {
	 	 	 	 	 	 OFFSET 0.00 -2.52 0.00
	 	 	 	 	 }
	 	 	 	 }
	 	 	 }
	 	 }
	 	 JOINT RightCollar
	 	 {
	 	 	 OFFSET 0.00 4.89 0.00
	 	 	 CHANNELS 3 Zrotation Yrotation Xrotation
	 	 	 JOINT RightUpArm
	 	 	 {
	 	 	 	 OFFSET -1.51 0.00 0.00
	 	 	 	 CHANNELS 3 Zrotation Yrotation Xrotation
	 	 	 	 JOINT RightLowArm
	 	 	 	 {
	 	 	 	 	 OFFSET 0.00 -2.79 0.00
	 	 	 	 	 CHANNELS 3 Zrotation Yrotation Xrotation
	 	 	 	 	 End Site
	 	 	 	 	 {
	 	 	 	 	 	 OFFSET 0.00 -2.52 0.00
	 	 	 	 	 }
	 	 	 	 }
	 	 	 }
	 	 }
	 	 JOINT Neck
	 	 {
	 	 	 OFFSET 0.00 4.89 0.00
	 	 	 CHANNELS 3 Zrotation Yrotation Xrotation
	 	 	 End Site
	 	 	 {
	 	 	 	 OFFSET 0.00 1.79 0.00
	 	 	 }
	 	 }
	 }
}

MOTION
Frames: 18
Frame Time: 0.03
0.00 0.00 0.00 0.00 0.00 0.00 0.00 0.00 0.00 0.00 0.00 0.00 0.00 0.00 0.00 0.00 0.00 0.00 0.00 0.00 0.00 0.00 0.00 0.00 0.00 0.00 0.00 0.00 0.00 0.00 0.00 0.00 0.00 0.00 0.00 0.00 0.00 0.00 0.00 0.00 0.00 0.00 0.00 0.00 0.00 0.00 0.00 0.00 
-2.88 0.65 9.34 0.98 12.38 -7.19 -1.58 0.14 10.19 3.14 -0.16 6.00 0.00 0.00 0.00 4.97 -0.58 13.29 -1.72 0.03 2.13 0.00 0.00 0.00 0.50 0.00 -0.00 0.00 0.00 0.00 49.56 -6.68 -6.53 -1.79 -0.48 -29.89 0.00 0.00 0.00 -47.87 -9.12 -10.59 11.33 1.68 -16.82 -0.79 -0.01 -1.66
-2.89 0.64 9.34 0.96 12.38 -7.32 -1.44 0.13 10.30 3.03 -0.16 6.03 0.00 0.00 0.00 5.00 -0.59 13.43 -1.60 0.03 2.09 0.00 0.00 0.00 0.49 0.00 -0.00 0.00 0.00 0.00 49.29 -6.64 -6.65 -2.08 -0.55 -29.51 0.00 0.00 0.00 -47.46 -9.07 -10.47 11.16 1.67 -16.94 -0.78 -0.01 -1.49
-2.89 0.64 9.34 0.96 12.38 -7.32 -1.44 0.13 10.30 3.03 -0.16 6.03 0.00 0.00 0.00 5.00 -0.59 13.43 -1.60 0.03 2.09 0.00 0.00 0.00 0.49 0.00 -0.00 0.00 0.00 0.00 48.94 -6.17 -6.94 -2.41 -0.62 -28.67 0.00 0.00 0.00 -47.44 -9.09 -10.20 11.37 1.67 -16.65 -0.78 -0.01 -1.49
-2.90 0.64 9.34 0.84 12.63 -7.49 -1.22 0.11 10.39 2.97 -0.16 6.07 0.00 0.00 0.00 5.22 -0.62 13.63 -1.68 0.03 2.00 0.00 0.00 0.00 0.48 0.00 -0.00 0.00 0.00 0.00 49.39 -6.30 -6.86 -2.37 -0.59 -28.15 0.00 0.00 0.00 -47.26 -9.04 -9.65 11.52 1.67 -16.44 -0.30 -0.00 -1.11
-2.90 0.64 9.34 0.94 12.38 -7.44 -1.42 0.13 10.41 3.15 -0.17 6.01 0.00 0.00 0.00 5.02 -0.60 13.54 -1.47 0.03 2.06 0.00 0.00 0.00 0.49 0.00 -0.00 0.00 0.00 0.00 49.05 -5.58 -6.82 -2.81 -0.68 -27.27 0.00 0.00 0.00 -47.46 -8.76 -9.07 11.26 1.62 -16.31 -0.37 -0.00 -1.13
-2.90 0.64 9.34 0.89 12.80 -7.45 -1.36 0.12 10.30 3.20 -0.17 6.10 0.00 0.00 0.00 5.10 -0.61 13.63 -1.46 0.02 1.95 0.00 0.00 0.00 0.48 0.00 -0.00 0.00 0.00 0.00 48.86 -5.04 -7.13 -3.24 -0.75 -26.02 0.00 0.00 0.00 -47.58 -8.86 -7.98 11.24 1.62 -16.37 -0.38 -0.00 -1.13
-2.91 0.64 9.34 0.92 12.39 -7.55 -1.27 0.12 10.48 3.06 -0.16 6.16 0.00 0.00 0.00 5.16 -0.62 13.60 -1.55 0.03 2.24 0.00 0.00 0.00 0.49 -0.00 0.00 0.00 0.00 0.00 48.69 -4.43 -6.63 -3.42 -0.75 -24.88 0.00 0.00 0.00 -47.47 -8.54 -7.39 10.68 1.46 -15.57 -0.34 -0.00 -1.03
-2.91 0.64 9.34 1.02 12.40 -7.53 -1.38 0.13 10.44 3.07 -0.17 6.20 0.00 0.00 0.00 5.09 -0.61 13.70 -1.62 0.03 2.00 0.00 0.00 0.00 0.50 0.00 -0.00 0.00 0.00 0.00 48.33 -3.98 -5.94 -3.49 -0.75 -24.24 0.00 0.00 0.00 -47.72 -8.10 -6.03 10.37 1.43 -15.66 -0.47 -0.00 -0.98
-2.92 0.64 9.34 0.95 12.38 -7.39 -1.19 0.11 10.27 2.95 -0.16 6.22 0.00 0.00 0.00 5.28 -0.63 13.50 -1.74 0.03 2.05 0.00 0.00 0.00 0.49 0.00 -0.00 0.00 0.00 0.00 48.44 -2.98 -5.98 -3.99 -0.80 -22.71 0.00 0.00 0.00 -47.33 -8.54 -5.61 9.86 1.27 -14.67 -0.44 -0.01 -1.54
-2.92 0.64 9.33 1.08 12.19 -7.36 -1.45 0.13 10.31 3.17 -0.17 6.16 0.00 0.00 0.00 5.01 -0.59 13.46 -1.50 0.03 2.08 0.00 0.00 0.00 0.51 0.00 -0.00 0.00 0.00 0.00 48.50 -2.68 -4.93 -3.65 -0.70 -21.78 0.00 0.00 0.00 -47.11 -8.28 -4.75 9.29 1.13 -13.84 -0.49 -0.01 -1.18
-2.92 0.63 9.33 1.17 12.20 -7.36 -1.53 0.14 10.31 3.18 -0.17 6.28 0.00 0.00 0.00 4.93 -0.58 13.49 -1.49 0.03 2.19 0.00 0.00 0.00 0.52 0.00 -0.00 0.00 0.00 0.00 48.20 -2.14 -4.06 -3.68 -0.66 -20.33 0.00 0.00 0.00 -47.31 -8.41 -3.97 8.50 0.96 -12.87 -0.60 -0.01 -1.16
-2.93 0.63 9.33 1.19 12.20 -7.24 -1.40 0.13 10.30 3.01 -0.16 6.06 0.00 0.00 0.00 5.02 -0.59 13.33 -1.59 0.03 2.25 0.00 0.00 0.00 0.53 0.00 -0.00 0.00 0.00 0.00 48.40 -1.59 -2.95 -3.76 -0.64 -19.42 0.00 0.00 0.00 -46.99 -8.80 -3.51 7.66 0.77 -11.45 -0.62 -0.01 -1.32
-2.93 0.63 9.33 1.19 12.20 -7.23 -1.40 0.13 10.29 3.01 -0.16 6.07 0.00 0.00 0.00 5.03 -0.59 13.33 -1.60 0.03 2.25 0.00 0.00 0.00 0.53 0.00 -0.00 0.00 0.00 0.00 48.16 -0.93 -2.25 -3.20 -0.50 -17.85 0.00 0.00 0.00 -47.22 -8.97 -2.70 7.29 0.64 -10.06 -0.61 -0.01 -1.33
-2.94 0.63 9.33 1.27 12.23 -7.13 -1.59 0.14 10.22 3.24 -0.17 6.02 0.00 0.00 0.00 4.97 -0.58 13.25 -1.62 0.03 2.24 0.00 0.00 0.00 0.57 0.00 -0.00 0.00 0.00 0.00 48.24 -0.49 -1.23 -3.24 -0.47 -16.32 0.00 0.00 0.00 -47.15 -9.02 -1.64 6.35 0.52 -9.43 -0.74 -0.01 -1.42
-2.95 0.63 9.33 1.31 12.20 -7.12 -1.51 0.13 10.20 3.00 -0.16 6.07 0.00 0.00 0.00 5.08 -0.59 13.34 -1.77 0.03 2.14 0.00 0.00 0.00 0.54 0.00 -0.00 0.00 0.00 0.00 48.42 -0.27 0.30 -2.78 -0.38 -15.44 0.00 0.00 0.00 -46.95 -9.01 -0.74 5.04 0.37 -8.32 -0.74 -0.01 -1.47
-2.95 0.63 9.33 1.29 12.62 -7.01 -1.47 0.13 9.98 3.05 -0.16 6.16 0.00 0.00 0.00 4.99 -0.58 13.23 -1.44 0.03 2.22 0.00 0.00 0.00 0.54 -0.00 0.00 0.00 0.00 0.00 48.28 -0.14 1.39 -2.31 -0.29 -14.09 0.00 0.00 0.00 -46.45 -9.80 -0.48 3.93 0.23 -6.62 -0.46 -0.01 -1.65
-2.95 0.63 9.33 1.41 12.62 -6.90 -1.58 0.14 9.89 3.04 -0.16 6.16 0.00 0.00 0.00 5.01 -0.58 13.12 -1.71 0.03 2.27 0.00 0.00 0.00 0.56 -0.00 0.00 0.00 0.00 0.00 48.30 0.27 2.16 -2.08 -0.22 -12.24 0.00 0.00 0.00 -46.33 -9.80 0.59 2.96 0.15 -5.87 -0.61 -0.01 -1.68
